<svg width="471" height="512" viewBox="0 0 471 512" fill="none" xmlns="http://www.w3.org/2000/svg">
<path d="M1.33333 456C1.33333 471.467 7.79733 485.611 16.1173 493.461C23.6693 503.829 41.4187 512 57.056 512C66.2933 512 75.616 509.696 84.1707 504.96L338.613 362.752C339.019 362.517 339.211 362.133 339.573 361.877C354.208 355.413 381.685 338.197 441.995 304.96H442.016C480.16 283.563 480.203 228.48 441.995 207.04C385.461 178.176 357.984 158.272 341.643 150.656C324.555 138.539 281.269 116.8 187.083 64C67.5093 -2.98667 48.992 -14.5067 20.2347 14.016C-10.0587 26.5387 4.78933 110.293 1.33333 456V456ZM220.576 255.509C218.421 257.621 35.3387 453.376 33.3333 455.509C36.4693 141.653 30.4533 96.4693 33.5253 56.6827C35.5093 58.816 213.365 248.597 220.576 255.509V255.509ZM54.368 479.851C300.619 221.269 232.16 293.269 244.043 280.064C246.069 282.219 309.131 349.12 305.099 344.853C61.472 479.168 68.5547 481.515 54.368 479.851ZM426.357 277.035L333.899 328.747L265.333 256L333.899 183.253L426.357 234.965C442.741 244.117 442.72 267.883 426.357 277.035V277.035ZM305.035 167.211C278.389 195.2 301.963 171.072 243.04 232.32L54.3253 32.0853C75.68 33.984 142.709 77.248 305.035 167.211Z" fill="white"/>
</svg>
